<svg xmlns:dc="http://purl.org/dc/elements/1.1/" xmlns:cc="http://creativecommons.org/ns#" xmlns:rdf="http://www.w3.org/1999/02/22-rdf-syntax-ns#" xmlns:svg="http://www.w3.org/2000/svg" xmlns="http://www.w3.org/2000/svg" xmlns:sodipodi="http://sodipodi.sourceforge.net/DTD/sodipodi-0.dtd" xmlns:inkscape="http://www.inkscape.org/namespaces/inkscape" viewBox="0 0 25.399999 31.749998750000003" version="1.1" x="0px" y="0px"><g><path style="color:#000000;font-style:normal;font-variant:normal;font-weight:normal;font-stretch:normal;font-size:medium;line-height:normal;font-family:sans-serif;font-variant-ligatures:normal;font-variant-position:normal;font-variant-caps:normal;font-variant-numeric:normal;font-variant-alternates:normal;font-feature-settings:normal;text-indent:0;text-align:start;text-decoration:none;text-decoration-line:none;text-decoration-style:solid;text-decoration-color:#000000;letter-spacing:normal;word-spacing:normal;text-transform:none;writing-mode:lr-tb;direction:ltr;text-orientation:mixed;dominant-baseline:auto;baseline-shift:baseline;text-anchor:start;white-space:normal;shape-padding:0;clip-rule:nonzero;display:inline;overflow:visible;visibility:visible;opacity:1;isolation:auto;mix-blend-mode:normal;color-interpolation:sRGB;color-interpolation-filters:linearRGB;solid-color:#000000;solid-opacity:1;vector-effect:none;fill:#000000;fill-opacity:1;fill-rule:evenodd;stroke:none;stroke-width:4;stroke-linecap:round;stroke-linejoin:round;stroke-miterlimit:4;stroke-dasharray:none;stroke-dashoffset:30.23622131;stroke-opacity:1;paint-order:stroke fill markers;color-rendering:auto;image-rendering:auto;shape-rendering:auto;text-rendering:auto;enable-background:accumulate" d="M 43.994141 5.9980469 C 40.704735 5.9980454 37.994141 8.7086396 37.994141 11.998047 L 37.994141 15.609375 C 35.979963 16.235251 34.035593 17.041795 32.171875 18.029297 L 29.615234 15.472656 C 28.451604 14.309023 26.904553 13.712891 25.373047 13.712891 C 23.841541 13.712891 22.294491 14.309024 21.130859 15.472656 L 15.472656 21.130859 C 13.146876 23.456639 13.146877 27.289456 15.472656 29.615234 L 18.03125 32.173828 C 17.048321 34.038966 16.24432 35.983378 15.623047 37.998047 L 11.994141 37.998047 C 8.7059107 37.998047 5.9941399 40.706684 5.9941406 43.996094 L 5.9941406 51.998047 C 5.9941399 55.287449 8.7047326 57.998047 11.994141 57.998047 L 15.605469 57.998047 C 16.231687 60.015268 17.040401 61.961741 18.029297 63.828125 L 15.472656 66.384766 C 13.146877 68.710543 13.146876 72.543363 15.472656 74.869141 L 21.130859 80.527344 C 23.456639 82.853125 27.289456 82.853121 29.615234 80.527344 L 32.173828 77.96875 C 34.03786 78.951363 35.980675 79.755587 37.994141 80.376953 L 37.994141 83.998047 C 37.994141 87.287453 40.704735 89.998047 43.994141 89.998047 L 51.996094 89.998047 C 55.2855 89.998047 57.996094 87.287453 57.996094 83.998047 L 57.996094 80.394531 C 60.013696 79.768422 61.959422 78.957663 63.826172 77.96875 L 66.384766 80.527344 C 68.710543 82.853121 72.543363 82.853125 74.869141 80.527344 L 80.527344 74.869141 C 82.853125 72.543363 82.853121 68.710543 80.527344 66.384766 L 77.96875 63.826172 C 78.95269 61.959595 79.759165 60.014414 80.380859 57.998047 L 83.994141 57.998047 C 87.283547 57.998047 89.994144 55.287453 89.994141 51.998047 L 89.994141 43.996094 C 89.994144 42.350272 89.320024 40.835645 88.238281 39.753906 C 87.155269 38.670894 85.639951 37.998047 83.994141 37.998047 L 80.390625 37.998047 C 79.764883 35.982828 78.956473 34.038513 77.96875 32.173828 L 80.527344 29.615234 C 82.853121 27.289456 82.853125 23.456639 80.527344 21.130859 L 74.869141 15.472656 C 73.705507 14.309024 72.158459 13.712891 70.626953 13.712891 C 69.095447 13.712891 67.548395 14.309023 66.384766 15.472656 L 63.826172 18.03125 C 61.958998 17.047106 60.013122 16.240809 57.996094 15.619141 L 57.996094 11.998047 C 57.996094 10.352236 57.32325 8.8369197 56.240234 7.7539062 C 55.157222 6.6708894 53.641908 5.9980454 51.996094 5.9980469 L 43.994141 5.9980469 z M 43.994141 9.9980469 L 51.996094 9.9980469 C 52.566285 9.9980465 53.049127 10.219047 53.412109 10.582031 C 53.775095 10.945017 53.996094 11.427858 53.996094 11.998047 L 53.996094 17.056641 A 2.0002 2.0002 0 0 0 55.496094 18.994141 C 58.204224 19.692513 60.802115 20.765894 63.212891 22.183594 A 2.0002 2.0002 0 0 0 65.640625 21.873047 L 69.212891 18.300781 C 69.616208 17.897465 70.113504 17.712891 70.626953 17.712891 C 71.140398 17.712891 71.637698 17.897464 72.041016 18.300781 L 77.699219 23.958984 C 78.507338 24.767103 78.507338 25.978992 77.699219 26.787109 L 74.125 30.361328 A 2.0002 2.0002 0 0 0 73.816406 32.792969 C 75.239209 35.200554 76.319236 37.79549 77.023438 40.501953 A 2.0002 2.0002 0 0 0 78.958984 41.998047 L 83.994141 41.998047 C 84.564324 41.998047 85.047167 42.219038 85.410156 42.582031 C 85.774427 42.946302 85.994144 43.425907 85.994141 43.996094 L 85.994141 51.998047 C 85.994144 53.140632 85.136733 53.998047 83.994141 53.998047 L 78.943359 53.998047 A 2.0002 2.0002 0 0 0 77.005859 55.498047 C 76.307323 58.205542 75.233948 60.802686 73.816406 63.212891 A 2.0002 2.0002 0 0 0 74.126953 65.640625 L 77.699219 69.212891 C 78.507338 70.02101 78.507338 71.2329 77.699219 72.041016 L 72.041016 77.699219 C 71.2329 78.507338 70.02101 78.507338 69.212891 77.699219 L 65.638672 74.125 A 2.0002 2.0002 0 0 0 63.207031 73.816406 C 60.797832 75.240317 58.200646 76.321095 55.492188 77.025391 A 2.0002 2.0002 0 0 0 53.996094 78.960938 L 53.996094 83.998047 C 53.996094 85.140643 53.13869 85.998047 51.996094 85.998047 L 43.994141 85.998047 C 42.851548 85.998047 41.994141 85.140643 41.994141 83.998047 L 41.994141 78.941406 A 2.0002 2.0002 0 0 0 40.494141 77.005859 C 37.78927 76.307255 35.195124 75.232682 32.787109 73.816406 A 2.0002 2.0002 0 0 0 30.359375 74.126953 L 26.787109 77.699219 C 25.978992 78.507338 24.767103 78.507338 23.958984 77.699219 L 18.300781 72.041016 C 17.492663 71.2329 17.492663 70.02101 18.300781 69.212891 L 21.875 65.638672 A 2.0002 2.0002 0 0 0 22.183594 63.207031 C 20.759838 60.798402 19.679066 58.201964 18.974609 55.494141 A 2.0002 2.0002 0 0 0 17.039062 53.998047 L 11.994141 53.998047 C 10.851546 53.998047 9.9941402 53.140636 9.9941406 51.998047 L 9.9941406 43.996094 C 9.9941402 42.853497 10.850368 41.998047 11.994141 41.998047 L 17.058594 41.998047 A 2.0002 2.0002 0 0 0 18.996094 40.498047 C 19.694375 37.791909 20.767001 35.196267 22.183594 32.787109 A 2.0002 2.0002 0 0 0 21.873047 30.359375 L 18.300781 26.787109 C 17.492663 25.978992 17.492663 24.767103 18.300781 23.958984 L 23.958984 18.300781 C 24.362302 17.897464 24.859599 17.712891 25.373047 17.712891 C 25.886493 17.712891 26.383793 17.897464 26.787109 18.300781 L 30.361328 21.875 A 2.0002 2.0002 0 0 0 32.792969 22.183594 C 35.199411 20.761102 37.792849 19.681086 40.498047 18.976562 A 2.0002 2.0002 0 0 0 41.994141 17.041016 L 41.994141 11.998047 C 41.994141 10.855453 42.851548 9.9980465 43.994141 9.9980469 z M 47.996094 25.998047 C 35.869517 25.998046 25.998046 35.869517 25.998047 47.996094 C 25.998048 60.122667 35.869518 70.001953 47.996094 70.001953 C 60.122667 70.001953 70.001953 60.122667 70.001953 47.996094 C 70.001953 35.869518 60.122667 25.998048 47.996094 25.998047 z M 47.996094 30 C 57.960905 30.000001 66.001953 38.031278 66.001953 47.996094 C 66.001949 57.960905 57.960905 66.001949 47.996094 66.001953 C 38.031278 66.001953 30.000001 57.960905 30 47.996094 C 30 38.031278 38.031278 30 47.996094 30 z " transform="scale(0.26458332)"/></g><text x="0" y="40.399999" fill="#000000" font-size="5px" font-weight="bold" font-family="'Helvetica Neue', Helvetica, Arial-Unicode, Arial, Sans-serif">Created by Gajah Mada Studio</text><text x="0" y="45.399999" fill="#000000" font-size="5px" font-weight="bold" font-family="'Helvetica Neue', Helvetica, Arial-Unicode, Arial, Sans-serif">from the Noun Project</text></svg>